<?xml version="1.0" encoding="UTF-8" standalone="no"?>
<!--
  ~ Copyright (c) 2024, MLC 'Strawmelonjuice' Bloeiman
  ~
  ~ Licensed under the BSD 3-Clause License. See the LICENSE file for more info.
  -->

<svg
   id="svg1"
   width="120"
   height="120"
   version="1.1"
   viewBox="0 0 120 120"
   sodipodi:docname="luminalogo-1.svg"
   inkscape:version="1.3.2 (091e20ef0f, 2023-11-25, custom)"
   inkscape:export-filename="../png/luminalogo-1.png"
   inkscape:export-xdpi="96"
   inkscape:export-ydpi="96"
   xmlns:inkscape="http://www.inkscape.org/namespaces/inkscape"
   xmlns:sodipodi="http://sodipodi.sourceforge.net/DTD/sodipodi-0.dtd"
   xmlns="http://www.w3.org/2000/svg"
   xmlns:svg="http://www.w3.org/2000/svg">
  <defs
     id="defs1" />
  <sodipodi:namedview
     id="namedview1"
     pagecolor="#ffffff"
     bordercolor="#000000"
     borderopacity="0.25"
     inkscape:showpageshadow="2"
     inkscape:pageopacity="0.0"
     inkscape:pagecheckerboard="0"
     inkscape:deskcolor="#d1d1d1"
     inkscape:zoom="4.112263"
     inkscape:cx="57.875675"
     inkscape:cy="49.607721"
     inkscape:window-width="1920"
     inkscape:window-height="1128"
     inkscape:window-x="0"
     inkscape:window-y="0"
     inkscape:window-maximized="1"
     inkscape:current-layer="svg1" />
  <g
     id="layer2"
     style="display:inline;fill:#ff6f08;fill-opacity:0.524951"
     transform="translate(10.078565,21.743467)">
    <path
       style="fill:#ff6f08;fill-opacity:0.524951"
       id="path6"
       d="m 59.920493,35.97327 c 0.02434,0.290094 0.06487,0.579283 0.07303,0.870282 0.01131,0.403437 -0.0064,0.807188 -0.01469,1.210697 -0.05537,2.686992 -0.310969,5.349396 -0.604281,8.019455 -0.106169,2.837652 -0.638764,5.639873 -0.814527,8.470747 -0.04226,0.680659 -0.07323,2.790624 -0.08607,3.501434 0.0277,2.689403 -8.45e-4,5.379505 -0.125408,8.066236 -0.09936,1.501992 0.01475,3.011357 0.197177,4.502895 0.18554,1.065579 0.406733,2.12569 0.658557,3.177578 0.233487,0.829929 0.428099,1.672688 0.697953,2.4918 0.15861,0.674107 0.418834,1.299222 0.727503,1.915881 0.521263,0.912555 1.196993,1.709777 1.883529,2.499603 0.639982,0.672658 1.363774,1.299117 2.168539,1.769866 12.558905,7.34636 8.506542,5.38692 13.682471,7.860804 0.665028,0.338812 1.374121,0.551272 2.082153,0.77281 0.438852,0.137313 0.703704,0.256905 1.149913,0.34846 0.177844,0.03649 0.359571,0.05048 0.539356,0.07573 0.518886,0.0311 1.040244,0.104878 1.5614,0.08885 0.497768,-0.01531 0.989018,-0.11971 1.479493,-0.19632 0.659206,-0.181827 1.298249,-0.439176 1.917167,-0.729161 0.307243,-0.133551 0.607881,-0.290232 0.927638,-0.393461 0.135487,-0.04374 0.27761,-0.06488 0.412977,-0.108988 1.890769,-0.616103 -0.88541,0.226671 0.938814,-0.319168 0.377858,-0.131535 0.778978,-0.142572 1.168105,-0.209501 0.214806,-0.03695 0.425372,-0.09579 0.639657,-0.135645 0,0 -12.209607,-8.45218 -12.209607,-8.45218 v 0 c -0.581512,0.164075 -1.167576,0.309306 -1.728315,0.540912 -0.842263,0.281829 -1.708842,0.493059 -2.530454,0.836332 -0.511785,0.204425 -1.015543,0.435988 -1.576605,0.465593 -0.892182,0.09574 -1.79237,-0.03477 -2.659459,-0.252228 -1.159405,-0.36404 -2.314346,-0.742668 -3.367466,-1.365985 -4.542034,-2.579233 -0.799218,-0.456481 11.000309,6.391652 0.21726,0.126092 -0.437465,-0.24722 -0.652055,-0.377806 -0.268427,-0.163349 -0.753488,-0.482226 -1.018052,-0.678238 -0.139255,-0.103172 -0.271663,-0.21528 -0.407494,-0.322919 -0.394614,-0.35058 -0.753781,-0.719271 -1.107072,-1.111628 -0.02426,-0.02695 -0.540442,-0.611006 -0.582238,-0.67203 -0.07216,-0.105355 -0.119835,-0.225532 -0.179752,-0.338298 -0.186438,-0.243567 -0.312176,-0.486041 -0.465793,-0.748918 -0.159681,-0.273254 -0.34586,-0.526382 -0.411041,-0.84603 -0.258232,-0.838446 -0.627088,-1.640644 -0.869039,-2.486231 -0.291198,-1.025474 -0.507349,-2.072221 -0.767053,-3.106035 -0.02222,-0.09355 -0.276309,-1.16084 -0.289439,-1.22702 -0.211621,-1.06661 -0.281172,-2.157808 -0.361743,-3.239794 -0.202839,-2.776164 -0.369193,-5.556343 -0.435037,-8.33941 -0.134457,-4.010728 -0.185302,-8.049303 0.412949,-12.028841 0.394999,-2.900178 0.828375,-5.83255 1.755081,-8.621441 0.07983,-0.24024 0.185911,-0.470944 0.278866,-0.706415 z" />
  </g>
  <g
     id="layer1-5"
     transform="translate(0.73545524,-0.09329462)">
    <ellipse
       style="fill:#ffcc00"
       id="path1-3"
       cx="32.622002"
       cy="99.763"
       rx="14.187"
       ry="13.374" />
    <ellipse
       style="fill:#000080"
       id="path2-5"
       cx="107.5645"
       cy="46.181362"
       rx="13.374"
       ry="15.091" />
    <ellipse
       style="fill:#4d4d4d"
       id="path3-6"
       cx="26.115999"
       cy="28.646"
       rx="26.837999"
       ry="27.561001" />
    <ellipse
       style="fill:#d38d5f"
       id="path4-2"
       cx="78.708"
       cy="30.181999"
       rx="6.5970001"
       ry="6.3260002" />
    <path
       style="fill:#000000"
       id="path8-9"
       d="m 28.555366,54.21905 c 4.698985,33.615811 4.698985,33.615811 4.698985,33.615811" />
    <path
       style="fill:#ffaeae;fill-opacity:1"
       id="path12-1"
       d="m 26.748065,29.459017 9.036508,67.231623 -0.72292,0.18073" />
    <path
       style="fill:#790000;fill-opacity:1;stroke-width:2.16341"
       id="path14-2"
       d="m 112.07197,52.140484 -80.699252,-12.786469 2.519513,5.460883 v 0 0"
       sodipodi:nodetypes="ccccc" />
    <path
       style="fill:#cd0909;fill-opacity:1"
       id="path13-7"
       d="m 35.423113,96.69064 42.83305,-65.424321 0.90365,0.542191 -42.833049,66.147241 h -0.18073 z" />
    <path
       style="fill:#ff0000;stroke-width:3.57723"
       id="path15-0"
       d="M 82.607667,34.648745 111.7959,52.394116 v 0 L 78.614522,29.156547 Z" />
    <path
       style="fill:#b94646;fill-opacity:1"
       id="path16-9"
       d="m 74.641559,29.820478 -39.760637,7.409937 v 0 l 38.676256,-9.397969 v 0 0 z" />
  </g>
</svg>
